<?xml version="1.0" encoding="UTF-8"?>
<svg width="200px" height="200px" viewBox="0 0 200 200" version="1.1" xmlns="http://www.w3.org/2000/svg" xmlns:xlink="http://www.w3.org/1999/xlink">
    <!-- Generator: Sketch 52.4 (67378) - http://www.bohemiancoding.com/sketch -->
    <title>分组</title>
    <desc>Created with Sketch.</desc>
    <g id="页面-1" stroke="none" stroke-width="1" fill="none" fill-rule="evenodd">
        <g id="分组">
            <rect id="矩形" fill="#1890FF" x="0" y="0" width="200" height="200" rx="16"></rect>
            <path d="M141.774912,112.118273 L112.118273,112.118273 L112.118273,141.775107 C112.118273,148.643698 106.499848,154.262318 99.6310615,154.262318 C92.7626658,154.262318 87.1440455,148.643698 87.1440455,141.775107 L87.1440455,112.118273 L57.4872113,112.118273 C50.6186203,112.118273 45,106.499653 45,99.6310615 C45,92.7624705 50.6186203,87.1438502 57.4872113,87.1438502 L87.1440455,87.1438502 L87.1440455,57.4872113 C87.1440455,50.6186203 92.7626658,45 99.6310615,45 C106.499653,45 112.118273,50.6186203 112.118273,57.4872113 L112.118273,87.1440453 L141.775107,87.1440453 C148.643698,87.1440453 154.262318,92.7626656 154.262318,99.6312566 C154.262123,106.499652 148.643503,112.118273 141.774912,112.118273" id="路径" fill="#FFFFFF" fill-rule="nonzero"></path>
        </g>
    </g>
</svg>