<?xml version="1.0" encoding="UTF-8"?>
<svg width="14px" height="15px" viewBox="0 0 14 15" version="1.1" xmlns="http://www.w3.org/2000/svg" xmlns:xlink="http://www.w3.org/1999/xlink">
    <!-- Generator: Sketch 52.4 (67378) - http://www.bohemiancoding.com/sketch -->
    <title>编辑 (2)</title>
    <desc>Created with Sketch.</desc>
    <g id="页面-1" stroke="none" stroke-width="1" fill="none" fill-rule="evenodd">
        <g id="CRM设置弹窗正在编辑" transform="translate(-1502.000000, -224.000000)" fill="#666666" fill-rule="nonzero">
            <g id="编辑-(2)" transform="translate(1502.000000, 224.000000)">
                <path d="M12.4882343,3.37077824 L6.13000837,9.75899582 L4.20054672,7.92950628 L10.5587727,1.5412887 L12.4882343,3.37077824 Z M3.72068061,8.36938354 L5.66013947,10.1988731 L2.81093445,11.1985941 L3.72068061,8.36938354 Z M13.0080893,2.90090934 L11.0086471,1.0714198 L11.5984826,0.481584379 C12.0657996,0.0359940329 12.8006997,0.0359940329 13.2680167,0.481584379 L13.5079498,0.711520223 C13.7297474,0.924537257 13.8551173,1.21876982 13.8551173,1.52629289 C13.8551173,1.83381595 13.7297474,2.12804852 13.5079498,2.34106555 L13.0080893,2.90090934 Z M12.1383319,14.0078103 L1.88119386,14.0078103 C0.848709463,14.0078103 0.0117154812,13.1708163 0.0117154812,12.1383319 L0.0117154812,1.88119386 C0.0117154812,0.848709463 0.848709463,0.0117154812 1.88119386,0.0117154812 L8.64930544,0.0117154812 C8.7762955,0.0117154812 8.87924128,0.114661265 8.87924128,0.241651325 L8.87924128,0.711520223 C8.87924128,0.838510283 8.7762955,0.941456067 8.64930544,0.941456067 L2.34106555,0.941456067 C1.56808258,0.941456067 0.941456067,1.56808258 0.941456067,2.34106555 L0.941456067,11.668463 C0.941456067,12.441446 1.56808258,13.0680725 2.34106555,13.0680725 L11.668463,13.0680725 C12.441446,13.0680725 13.0680725,12.441446 13.0680725,11.668463 L13.0680725,5.38021757 C13.0680725,5.25322751 13.1710183,5.15028173 13.2980084,5.15028173 L13.7678773,5.15028173 C13.8948673,5.15028173 13.9978131,5.25322751 13.9978131,5.38021757 L13.9978131,12.1483291 C13.992348,13.17302 13.1630228,14.0023452 12.1383319,14.0078103 Z" id="形状"></path>
            </g>
        </g>
    </g>
</svg>