<?xml version="1.0" encoding="UTF-8"?>
<svg width="200px" height="167px" viewBox="0 0 200 167" version="1.1" xmlns="http://www.w3.org/2000/svg" xmlns:xlink="http://www.w3.org/1999/xlink">
    <!-- Generator: Sketch 52.4 (67378) - http://www.bohemiancoding.com/sketch -->
    <title>形状</title>
    <desc>Created with Sketch.</desc>
    <g id="页面-1" stroke="none" stroke-width="1" fill="none" fill-rule="evenodd">
        <g id="领用单待接受" transform="translate(-96.000000, -373.000000)" fill="#1890FF" fill-rule="nonzero">
            <path d="M283.5,393.898438 L201,393.898438 C197.666667,393.898438 194.333333,392.648438 192.25,390.148438 L178.916667,376.815104 C176.416667,374.315104 173.5,373.065104 170.166667,373.065104 L108.5,373.065104 C101.416667,373.065104 96,378.481771 96,385.565104 L96,527.231771 C96,534.315104 101.416667,539.731771 108.5,539.731771 L283.5,539.731771 C290.583333,539.731771 296,534.315104 296,527.231771 L296,406.398438 C296,399.315104 290.583333,393.898438 283.5,393.898438 Z M236.416667,470.148438 L201.416667,507.648438 C199.75,509.315104 197.666667,510.148437 195.166667,510.148437 C193.083333,510.148437 190.583333,509.315104 188.916667,507.648438 L153.916667,470.148438 C148.916667,464.731771 152.666667,456.398438 160.166667,456.398438 L179.333333,456.398438 L179.333333,431.398438 C179.333333,426.815104 183.083333,423.065104 187.666667,423.065104 L204.333333,423.065104 C208.916667,423.065104 212.666667,426.815104 212.666667,431.398438 L212.666667,456.398438 L230.166667,456.398438 C237.666667,456.398438 241.416667,465.148438 236.416667,470.148438 Z" id="形状"></path>
        </g>
    </g>
</svg>