<?xml version="1.0" encoding="UTF-8"?>
<svg width="200px" height="167px" viewBox="0 0 200 167" version="1.1" xmlns="http://www.w3.org/2000/svg" xmlns:xlink="http://www.w3.org/1999/xlink">
    <!-- Generator: Sketch 52.4 (67378) - http://www.bohemiancoding.com/sketch -->
    <title>形状</title>
    <desc>Created with Sketch.</desc>
    <g id="页面-1" stroke="none" stroke-width="1" fill="none" fill-rule="evenodd">
        <g id="领用单待接受" transform="translate(-51.000000, -566.000000)" fill="#1890FF" fill-rule="nonzero">
            <path d="M238.5,586.833333 L156,586.833333 C152.666667,586.833333 149.333333,585.583333 147.25,583.083333 L133.916667,569.75 C131.416667,567.25 128.5,566 125.166667,566 L63.5,566 C56.4166666,566 51,571.416667 51,578.5 L51,720.166667 C51,727.25 56.4166666,732.666667 63.5,732.666667 L238.5,732.666667 C245.583333,732.666667 251,727.25 251,720.166667 L251,599.333333 C251,592.25 245.583333,586.833333 238.5,586.833333 Z M108.916667,656 L143.916667,618.5 C145.583333,616.833333 147.666667,616 150.166667,616 C152.25,616 154.75,616.833333 156.416667,618.5 L191.416667,656 C196.416667,661.416667 192.666667,669.75 185.166667,669.75 L166,669.75 L166,694.75 C166,699.333333 162.25,703.083333 157.666667,703.083333 L141,703.083333 C136.416666,703.083333 132.666666,699.333333 132.666667,694.75 L132.666667,669.75 L115.166667,669.75 C107.666667,669.75 103.916667,661 108.916667,656 Z" id="形状"></path>
        </g>
    </g>
</svg>