<?xml version="1.0" encoding="UTF-8"?>
<svg width="15px" height="13px" viewBox="0 0 15 13" version="1.1" xmlns="http://www.w3.org/2000/svg" xmlns:xlink="http://www.w3.org/1999/xlink">
    <!-- Generator: Sketch 52.4 (67378) - http://www.bohemiancoding.com/sketch -->
    <title>下次跟进人-01</title>
    <desc>Created with Sketch.</desc>
    <g id="页面-1" stroke="none" stroke-width="1" fill="none" fill-rule="evenodd">
        <g id="签约客户-预约回访" transform="translate(-625.000000, -497.000000)" fill="#1890FF">
            <g id="分组-7" transform="translate(608.000000, 497.000000)">
                <g id="分组">
                    <g id="下次跟进人-01" transform="translate(17.000000, 0.000000)">
                        <path d="M13.3617022,9.24720288 C13.1466525,9.07530171 12.8240779,9.07530171 12.7165531,9.24720288 C12.6090282,9.41910405 12.5015034,9.67695581 12.7165531,9.76290639 L13.2541773,10.1926593 L10.1359566,10.1926593 C9.92090688,10.1926593 9.59833232,10.3645605 9.59833232,10.6224122 C9.59833232,10.880264 9.81338203,11.0521652 10.1359566,11.0521652 L13.2541773,11.0521652 L12.6090282,11.5678687 C12.3939785,11.7397699 12.3939785,11.9976216 12.6090282,12.0835722 C12.7165531,12.1695228 12.8240779,12.1695228 12.9316028,12.1695228 C13.0391276,12.1695228 13.1466525,12.1695228 13.2541773,12.0835722 L14.7595253,11.0521652 C15.0820999,10.9662146 14.974575,10.5364617 14.7595253,10.3645605 L13.3617022,9.24720288 Z M6.3378896,5.94184648 C8.10785579,5.94184648 9.63646296,4.63753871 9.63646296,2.97092324 C9.63646296,1.30430776 8.1883088,0 6.3378896,0 C4.56792341,0 3.03931624,1.30430776 3.03931624,2.97092324 C3.03931624,4.63753871 4.4874704,5.94184648 6.3378896,5.94184648 Z M6.3378896,0.652153882 C7.70559075,0.652153882 8.91238588,1.66661548 8.91238588,2.97092324 C8.91238588,4.275231 7.70559075,5.2896926 6.3378896,5.2896926 C4.97018845,5.2896926 3.76339332,4.275231 3.76339332,2.97092324 C3.76339332,1.66661548 4.88973544,0.652153882 6.3378896,0.652153882 Z" id="形状" fill-rule="nonzero"></path>
                        <path d="M8.08082446,11.1236361 L1.20888824,11.1236361 C1.61311978,8.9735982 3.90666314,7.62220286 6.9383997,7.62220286 C8.45426799,7.62220286 9.97013627,7.97315479 11.081773,8.74716842 C11.2838888,8.91917145 11.5870624,8.83316993 11.6881203,8.6611669 C11.8902361,8.48916388 11.7891782,8.23115933 11.5870624,8.14515782 C10.3743678,7.28514268 8.65638376,6.7691336 6.9383997,6.7691336 C3.30031582,6.7691336 0.268579253,8.91917145 0.167521368,11.6712199 C0.167521368,11.7572214 0.167521368,11.8432229 0.268579253,11.9292244 C0.369637139,12.0152259 0.470695024,12.0152259 0.57175291,12.0152259 L7.94897856,12.0152259 C8.15109433,12.0152259 8.45426799,11.8432229 8.45426799,11.5852184 C8.45426799,11.3272138 8.38399812,11.1236361 8.08082446,11.1236361 Z" id="路径"></path>
                    </g>
                </g>
            </g>
        </g>
    </g>
</svg>