<?xml version="1.0" encoding="UTF-8"?>
<svg width="13px" height="10px" viewBox="0 0 13 10" version="1.1" xmlns="http://www.w3.org/2000/svg" xmlns:xlink="http://www.w3.org/1999/xlink">
    <!-- Generator: Sketch 52.4 (67378) - http://www.bohemiancoding.com/sketch -->
    <title>分组 15</title>
    <desc>Created with Sketch.</desc>
    <g id="Page-1" stroke="none" stroke-width="1" fill="none" fill-rule="evenodd">
        <g id="我的商机" transform="translate(-1024.000000, -923.000000)" fill="#1890FF" fill-rule="nonzero">
            <g id="分组-15" transform="translate(1024.000000, 923.000000)">
                <path d="M11.1325877,9.2280943 L10.2737627,8.38199586 C11.0169549,7.46856773 11.463883,6.31018336 11.463883,5.04832398 C11.463883,3.78649117 11.0169705,2.62807398 10.2737627,1.71365211 L11.1325877,0.868528672 C12.0923533,2.00155211 12.6705845,3.45762242 12.6705845,5.04832555 C12.6705877,6.6390318 12.0923689,8.0950943 11.1325877,9.2280943 Z" id="路径"></path>
                <path d="M6.64890127,9.79998492 C6.47337483,9.79998492 6.31294464,9.73460523 6.18086382,9.62723805 L3.4638255,7.42367242 L0.797551566,7.42367242 C0.357030094,7.42367242 1.51527233e-07,7.02550992 1.51527233e-07,6.5326443 L-4.17443857e-14,3.5639693 C-4.17443857e-14,3.07212711 0.356184145,2.67396461 0.795846044,2.67297398 L3.44103013,2.67004797 L6.14387464,0.201031797 C6.28369541,0.0780592187 6.45705074,-1.86517468e-14 6.6489008,-1.86517468e-14 C7.08984517,-1.86517468e-14 7.44689027,0.398145312 7.44689027,0.890020312 L7.44689027,3.56398906 L7.44689027,5.64266094 L7.44689027,6.53268125 L7.44689027,7.42370937 L7.44689027,8.90902187 C7.44691277,9.40082867 7.08985941,9.79998492 6.64890127,9.79998492 Z" id="路径"></path>
            </g>
        </g>
    </g>
</svg>