<?xml version="1.0" encoding="UTF-8"?>
<svg width="17px" height="14px" viewBox="0 0 17 14" version="1.1" xmlns="http://www.w3.org/2000/svg" xmlns:xlink="http://www.w3.org/1999/xlink">
    <!-- Generator: Sketch 52.4 (67378) - http://www.bohemiancoding.com/sketch -->
    <title>分组 16</title>
    <desc>Created with Sketch.</desc>
    <g id="Page-1" stroke="none" stroke-width="1" fill="none" fill-rule="evenodd">
        <g id="我的商机" transform="translate(-1046.000000, -936.000000)" fill="#BABABA" fill-rule="nonzero">
            <g id="分组-16" transform="translate(1046.375000, 936.500000)">
                <path d="M13.4854627,12.9912125 L12.6262049,12.1451141 C13.9651049,10.632475 14.7824236,8.66019219 14.7824236,6.49561406 C14.7824236,4.33108281 13.965122,2.35877031 12.6262049,0.846114063 L13.4854627,3.73034936e-14 C15.0420549,1.72929688 15.9891502,4.00314063 15.9891502,6.49559375 C15.9891189,8.98807188 15.0420408,11.2619469 13.4854627,12.9912125 Z" id="路径"></path>
                <path d="M11.1325877,10.6754 L10.2737627,9.82930156 C11.0169549,8.91587344 11.463883,7.75748906 11.463883,6.49562969 C11.463883,5.23379687 11.0169705,4.07537969 10.2737627,3.16095781 L11.1325877,2.31583437 C12.0923533,3.44885781 12.6705845,4.90492812 12.6705845,6.49563125 C12.6705877,8.0863375 12.0923689,9.5424 11.1325877,10.6754 Z" id="路径"></path>
                <path d="M6.64890127,11.2472906 C6.47337483,11.2472906 6.31294464,11.1819109 6.18086382,11.0745438 L3.4638255,8.87097813 L0.797551566,8.87097813 C0.357030094,8.87097813 1.51527233e-07,8.47281563 1.51527233e-07,7.97995 L-4.17443857e-14,5.011275 C-4.17443857e-14,4.51943281 0.356184145,4.12127031 0.795846044,4.12027969 L3.44103013,4.11735367 L6.14387464,1.6483375 C6.28369541,1.52536492 6.45705074,1.4473057 6.6489008,1.4473057 C7.08984517,1.4473057 7.44689027,1.84545102 7.44689027,2.33732602 L7.44689027,5.01129477 L7.44689027,7.08996664 L7.44689027,7.97998695 L7.44689027,8.87101508 L7.44689027,10.3563276 C7.44691277,10.8481344 7.08985941,11.2472906 6.64890127,11.2472906 Z" id="路径"></path>
            </g>
        </g>
    </g>
</svg>