<?xml version="1.0" encoding="UTF-8"?>
<svg width="9px" height="11px" viewBox="0 0 9 11" version="1.1" xmlns="http://www.w3.org/2000/svg" xmlns:xlink="http://www.w3.org/1999/xlink">
    <!-- Generator: Sketch 52.4 (67378) - http://www.bohemiancoding.com/sketch -->
    <title>路径</title>
    <desc>Created with Sketch.</desc>
    <g id="Page-1" stroke="none" stroke-width="1" fill="none" fill-rule="evenodd">
        <g id="我的商机" transform="translate(-1006.000000, -935.000000)" fill="#BABABA" fill-rule="nonzero">
            <path d="M1013.47079,945.59997 C1013.29527,945.59997 1013.13483,945.53459 1013.00275,945.427223 L1010.28572,943.223657 L1007.61944,943.223657 C1007.17892,943.223657 1006.82189,942.825495 1006.82189,942.332629 L1006.82189,939.363954 C1006.82189,938.872112 1007.17807,938.47395 1007.61774,938.472959 L1010.26292,938.470033 L1012.96576,936.001017 C1013.10559,935.878044 1013.27894,935.799985 1013.47079,935.799985 C1013.91174,935.799985 1014.26878,936.19813 1014.26878,936.690005 L1014.26878,939.363974 L1014.26878,941.442646 L1014.26878,942.332666 L1014.26878,943.223694 L1014.26878,944.709007 C1014.2688,945.200814 1013.91175,945.59997 1013.47079,945.59997 Z" id="路径"></path>
        </g>
    </g>
</svg>